<?xml version="1.0" encoding="utf-8"?>
<!DOCTYPE svg PUBLIC "-//W3C//DTD SVG 1.1//EN" "http://www.w3.org/Graphics/SVG/1.1/DTD/svg11.dtd">
<!-- exported from Silhouette Studio® Business Edition V4.4.259ssbe -->
<svg version="1.1" xmlns="http://www.w3.org/2000/svg" xmlns:xlink="http://www.w3.org/1999/xlink" width="304.8mm" height="304.8mm" viewBox="0 0 304.8 304.8">
<defs>
<path id="path_56cd5e4b9cf807e6c3cf1690f93e0cc1" d="M 287.819 223.3904 L 181.134 35.52515 C 168.3816 13.13062 136.034 13.13062 123.2815 35.52515 L 16.5965 223.3904 C 3.844065 245.4739 20.01789 273.1561 45.52276 273.1561 L 258.5817 273.1561 C 284.3976 273.1561 300.2605 245.785 287.819 223.3904 Z M 152.5188 80.31422 C 162.4719 80.31422 167.4485 89.33426 167.4485 107.6853 C 167.4485 117.6385 166.2043 131.324 163.405 149.053 C 160.6057 166.782 158.7395 177.6683 156.8733 181.0896 C 155.6292 183.5779 154.385 184.8221 152.5188 184.8221 C 150.3416 184.8221 148.7864 183.889 147.8533 181.7117 C 146.2981 178.9124 144.1208 168.9593 141.3215 151.8523 C 138.5222 134.7454 137.2781 119.8157 136.967 107.9964 C 136.9671 89.33424 142.2547 80.31422 152.5188 80.31422 Z M 163.4051 225.2566 C 160.2947 228.367 156.5623 229.9222 152.2078 229.9222 C 147.8533 229.9222 144.1209 228.367 141.0105 225.2566 C 137.9002 222.1463 136.345 218.4139 136.345 214.0594 C 136.345 209.7049 137.9002 205.9724 141.0105 202.8621 C 144.1209 199.7517 147.8533 198.1966 152.2078 198.1966 C 156.2512 198.1966 159.9837 199.7517 163.4051 203.1731 C 166.8264 206.5945 168.3816 210.3269 168.3816 214.3704 C 168.3816 218.4139 166.5154 222.1463 163.4051 225.2566 Z" fill-rule="evenodd" fill="#BD362F" fill-opacity="1" stroke="none" stroke-opacity="1" stroke-width="0.3527778" stroke-linecap="butt" stroke-linejoin="miter"/>
</defs>
<g>
<use xlink:href="#path_56cd5e4b9cf807e6c3cf1690f93e0cc1"/>
</g>
</svg>