<?xml version="1.0" encoding="utf-8"?>
<!DOCTYPE svg PUBLIC "-//W3C//DTD SVG 1.1//EN" "http://www.w3.org/Graphics/SVG/1.1/DTD/svg11.dtd">
<!-- exported from Silhouette Studio® Business Edition V4.4.259ssbe -->
<svg version="1.1" xmlns="http://www.w3.org/2000/svg" xmlns:xlink="http://www.w3.org/1999/xlink" width="304.8mm" height="304.8mm" viewBox="0 0 304.8 304.8">
<defs>
<path id="path_121829106f55360bf2e434b5de7c8956" d="M -228.7981 71.08661 C -228.7981 71.08661 -271.9787 98.5121 -292.9854 143.4433 C -311.0746 182.5392 -299.4042 227.4703 -270.8117 255.4793 C -236.3839 199.4613 -211.876 155.1137 -122.0137 99.67915 C -122.0137 99.67915 -203.1232 166.2006 -250.3884 271.2344 C -236.9674 279.4037 -221.2124 284.0719 -204.2903 284.6554 C -112.0939 286.9895 -85.25188 153.9467 -79.41666 114.2672 C -71.83089 64.08437 -23.98215 33.74125 -21.64807 33.15773 C -25.14917 32.57421 -129.016 8.649826 -228.7981 71.08661 Z" fill-rule="evenodd" fill="#468847" fill-opacity="1" stroke="none" stroke-opacity="1" stroke-width="0.3527778" stroke-linecap="butt" stroke-linejoin="miter"/>
<path id="path_20269f26d4d5e2a507f9c08937156e52" d="M -182.645 308.9128 C -254.9385 308.9128 -313.7115 367.6858 -313.7115 439.9793 C -313.7115 512.2729 -254.9385 571.0458 -182.645 571.0458 C -110.3514 571.0458 -51.57846 512.2728 -51.57846 439.9793 C -51.57846 367.6858 -110.3515 308.9128 -182.645 308.9128 Z M -297.1557 439.9793 C -297.1557 409.903 -285.5667 382.586 -266.5275 362.1672 C -265.4238 362.719 -264.3201 363.2709 -262.9405 364.3747 C -262.1127 365.2025 -261.8367 370.4451 -262.3886 376.2396 L -262.3886 376.5155 L -262.3886 376.7915 C -262.3886 376.7915 -257.6978 388.3805 -262.1127 397.7621 C -267.0794 407.6956 -265.9757 423.6995 -263.4923 427.2866 C -261.2849 430.3218 -250.5237 444.3942 -248.8681 446.0497 C -247.7643 447.1535 -243.9013 457.3629 -243.6254 458.7426 C -243.3495 460.1222 -236.1753 468.676 -228.7252 468.676 C -224.3103 468.4001 -219.3436 470.8834 -216.0325 472.539 C -214.3769 473.3668 -213.2732 473.9186 -212.4454 474.1946 C -212.1694 474.1946 -211.6176 475.0224 -211.3417 475.8502 C -210.2379 477.7817 -208.5823 480.541 -204.7193 482.7484 C -203.6156 483.3003 -202.5119 483.8521 -201.4082 484.6799 C -197.5452 486.8873 -192.0266 489.9226 -191.7507 490.7504 C -191.7507 491.0263 -192.5784 491.8541 -193.1303 492.6819 C -195.6137 495.4412 -199.4767 500.132 -198.373 506.2024 C -196.7174 514.7562 -184.8524 524.9656 -180.9894 527.449 C -178.5061 529.1045 -179.6098 546.4882 -180.9894 549.7993 C -181.5413 550.9031 -181.8172 552.8345 -181.5412 554.766 C -182.0931 554.766 -182.369 554.766 -182.9209 554.766 C -245.8328 554.4901 -297.1557 503.1672 -297.1557 439.9793 Z M -159.7428 552.2826 C -158.3632 550.627 -156.7076 548.9715 -156.4317 548.4196 C -156.1557 548.1437 -155.052 547.5919 -154.5002 547.04 C -152.5687 545.9363 -150.6371 544.8325 -149.8094 543.4529 C -148.4297 541.5214 -144.5667 537.3824 -142.9111 536.5547 C -140.7037 535.451 -127.1832 523.3101 -126.3554 521.3785 C -124.1479 516.4119 -121.3886 510.8932 -119.7331 509.5136 C -116.6979 507.0302 -119.4571 502.6153 -120.5608 500.9597 L -120.8368 500.6838 C -121.9405 498.7523 -129.6665 497.9245 -130.7702 498.2005 C -132.1499 498.2005 -138.7722 494.6133 -139.0481 493.5096 C -139.0481 491.3022 -145.3945 485.2318 -147.0501 485.2318 C -147.8779 485.2318 -151.7409 484.404 -153.6724 481.9206 C -156.1557 478.8854 -165.2614 476.6779 -167.7448 476.6779 C -170.2282 476.6779 -173.8153 476.1261 -176.2986 475.0224 C -178.5061 473.9186 -182.369 475.5742 -186.2321 477.2298 C -187.0598 477.5057 -187.8876 477.7817 -188.1636 478.0576 C -189.5432 478.3336 -196.9933 476.9539 -198.6489 476.1261 C -199.2007 475.5743 -199.4767 472.8149 -199.4767 471.1594 C -199.7526 469.2278 -199.7526 468.1241 -200.0285 467.2963 C -200.5804 466.1926 -202.236 465.9167 -205.8231 464.813 C -206.6509 464.5371 -207.7546 464.2612 -208.3064 463.9852 C -208.0305 463.4333 -207.7546 462.6055 -207.4786 461.7778 C -206.3749 459.0185 -205.5471 457.0869 -206.099 455.9832 C -206.3749 455.4314 -206.6508 455.1555 -207.2027 455.1555 C -208.8583 454.8795 -211.3417 456.5351 -213.825 458.1907 C -214.9288 459.0185 -216.5843 460.1222 -217.1362 460.3981 C -218.5158 460.3981 -221.5511 459.2944 -225.1381 457.087 C -227.0696 455.9832 -224.8622 449.085 -223.7585 446.0497 C -223.2066 444.3942 -222.6548 443.2905 -222.6548 442.4627 C -222.6548 441.6349 -218.7917 440.5312 -213.2732 440.5312 C -211.8935 440.5312 -209.6861 440.2552 -207.7546 439.9793 C -206.099 439.7034 -204.1675 439.4275 -203.0638 439.4275 C -202.236 439.4275 -200.8563 441.6349 -200.0285 442.7386 C -198.6489 444.9461 -197.5452 446.3257 -195.8896 446.0498 C -193.6821 445.498 -193.9581 442.7386 -193.9581 440.8071 C -193.9581 440.2553 -193.9581 439.4275 -193.9581 439.1516 C -193.6822 438.0479 -190.9229 433.0811 -188.7154 431.9774 C -185.9561 430.3218 -182.3691 425.0792 -183.1969 422.5958 C -183.1969 421.4921 -178.5061 418.1809 -176.8505 417.0772 C -176.0227 416.5253 -175.4708 416.2494 -175.1949 415.9734 C -174.643 415.6975 -174.0912 415.4216 -173.5393 414.8698 C -171.8838 414.042 -169.6763 412.9383 -169.6763 409.903 C -169.6763 408.2474 -164.4336 407.4197 -161.3985 406.8678 C -160.5707 406.8678 -160.0188 406.5919 -159.4669 406.5919 C -157.5354 406.3159 -156.4317 405.7641 -155.8799 404.9363 C -155.328 403.8326 -155.8799 402.4529 -156.4317 401.0733 C -156.7077 400.7974 -156.7077 400.2455 -156.9836 399.6936 C -158.0873 397.2102 -157.5354 395.2788 -155.0521 393.6232 C -153.9483 392.7954 -152.0168 392.5195 -149.8094 392.5195 C -147.602 392.2435 -145.3945 391.9676 -143.1871 391.1398 C -141.5315 390.588 -140.7037 389.7602 -140.4278 388.6564 C -140.1519 387.2768 -140.9796 386.1731 -141.8074 385.0694 C -142.0834 384.5175 -142.3593 384.2416 -142.6352 383.6897 C -143.739 381.4823 -145.9464 379.8267 -147.0501 378.723 C -147.8779 378.1711 -148.4298 374.86 -148.9816 372.9285 C -149.2575 371.5489 -149.5335 370.4451 -149.8094 369.8932 C -150.0853 369.0655 -150.6372 368.7896 -151.465 368.5136 C -153.1205 367.9618 -155.8798 368.7895 -157.5354 369.6173 C -157.5354 369.3414 -157.8114 368.5136 -157.8114 368.2377 C -158.0873 367.1339 -158.0873 366.0302 -158.9151 365.2024 C -159.191 364.9265 -160.2947 363.8228 -161.3984 362.995 C -163.054 361.6154 -164.9855 359.6838 -166.3651 358.3042 C -167.1929 357.4764 -168.0207 357.4764 -168.5726 357.4764 C -170.5041 357.7524 -172.1597 359.9597 -173.5393 362.4431 C -173.8153 362.7191 -173.8153 362.995 -174.0912 363.271 C -176.5746 366.858 -176.8505 369.6173 -175.1949 370.9969 C -175.1949 370.9969 -174.919 371.8248 -175.4708 372.9285 C -176.2986 374.86 -177.4023 376.2396 -178.2301 376.2396 L -178.2301 376.2396 C -180.4376 375.9637 -180.9894 378.9989 -181.5413 382.0341 C -181.8172 383.1378 -182.0932 384.7934 -182.3691 385.3453 C -182.9209 384.7934 -183.4728 383.1379 -183.4728 378.1711 L -183.4728 377.6193 C -183.4728 377.0674 -183.7487 376.5155 -184.0247 375.9637 C -184.5765 375.4118 -185.6802 375.4118 -186.508 375.4118 C -187.6118 375.4118 -188.1636 375.4118 -188.4395 375.1359 C -189.5432 373.2044 -195.6137 370.721 -198.0971 369.8932 C -198.0971 366.5821 -198.0971 363.2709 -198.0971 362.7191 C -197.2693 361.6154 -187.8876 355.269 -185.6802 354.4412 C -182.645 353.3375 -175.1949 348.3707 -173.5393 347.267 C -172.1597 346.4392 -171.8837 345.3355 -172.1597 344.5077 C -172.4356 342.0244 -176.8504 340.3688 -178.782 339.817 C -180.1616 336.5058 -182.369 336.5058 -185.1283 336.5058 C -186.508 336.5058 -187.8876 336.5058 -189.8191 336.2298 C -196.9933 335.1261 -202.7878 334.8502 -207.7546 335.4021 C -211.0657 335.9539 -215.2047 335.1262 -218.5158 334.2984 C -220.1714 334.0224 -221.551 333.7465 -222.9307 333.4705 C -223.4825 333.4705 -224.3103 333.4705 -225.1381 333.4705 C -211.8935 327.9519 -197.2692 324.9167 -182.0931 324.9167 C -166.6411 324.9167 -152.0168 327.9519 -138.4963 333.7465 C -138.2203 335.1261 -137.6685 336.7817 -136.8407 338.4373 C -135.461 341.7484 -132.7018 347.5429 -132.9777 351.6819 C -132.9777 355.8208 -132.4258 360.5117 -132.9777 361.8913 C -133.5295 363.2709 -124.4239 373.2044 -122.4923 373.4803 C -120.5608 373.7562 -119.1812 372.3766 -118.0775 370.4451 C -116.6978 368.5135 -115.0423 366.3062 -111.4552 363.5469 C -109.2478 361.8913 -103.4532 361.0635 -99.31427 360.7875 C -95.17532 364.9265 -91.58826 369.3414 -88.2771 374.3081 C -89.10489 375.1359 -90.20859 375.6877 -90.76047 376.2396 C -92.41602 377.8952 -97.10681 382.586 -96.55496 385.8971 C -96.00311 389.4842 -92.14012 393.8991 -87.72523 396.1066 C -83.03444 398.5899 -82.48257 403.2807 -82.48257 404.1085 C -82.48257 404.9362 -75.86024 409.0752 -75.86024 409.0752 C -75.86024 409.0752 -78.61955 414.5938 -79.99921 414.5938 C -81.37886 414.5938 -82.48257 420.1124 -82.48257 422.3199 C -82.48257 424.5273 -79.72328 428.3903 -76.96399 430.5977 C -74.2047 432.8052 -69.5139 426.7347 -69.5139 426.7347 L -68.68611 426.4588 C -68.41017 430.0459 -68.13422 433.6329 -67.85828 437.22 C -71.72128 437.7719 -76.68802 439.7034 -78.06767 440.8071 C -79.99918 442.4627 -84.13812 455.7073 -86.06963 457.087 C -88.00116 458.4666 -91.86417 476.6779 -92.14011 478.6094 C -92.41602 479.9891 -86.62152 491.3022 -82.75848 495.993 C -98.76242 524.4137 -126.6313 545.3843 -159.7428 552.2826 Z" fill-rule="evenodd" fill="#468847" fill-opacity="1" stroke="none" stroke-opacity="1" stroke-width="0.3527778" stroke-linecap="butt" stroke-linejoin="miter"/>
<path id="path_628b67e23e1315089626aa4c96abda9c" d="M 293.6835 225.7057 L 186.9984 37.84048 C 174.246 15.44594 141.8983 15.44594 129.1459 37.84048 L 22.46079 225.7057 C 9.708347 247.7893 25.88218 275.4714 51.38707 275.4714 L 264.4462 275.4714 C 290.2621 275.4714 306.1249 248.1003 293.6835 225.7057 Z M 158.3832 82.62957 C 168.3363 82.62957 173.3129 91.6496 173.3129 110.0007 C 173.3129 119.9538 172.0687 133.6393 169.2694 151.3683 C 166.4701 169.0973 164.6039 179.9836 162.7377 183.405 C 161.4935 185.8932 160.2494 187.1374 158.3832 187.1374 C 156.2059 187.1374 154.6507 186.2043 153.7177 184.027 C 152.1625 181.2278 149.9852 171.2746 147.1859 154.1676 C 144.3866 137.0607 143.1424 122.131 142.8314 110.3117 C 142.8314 91.64957 148.119 82.62957 158.3832 82.62957 Z M 169.2694 227.572 C 166.1591 230.6823 162.4267 232.2375 158.0722 232.2375 C 153.7177 232.2375 149.9852 230.6823 146.8749 227.572 C 143.7645 224.4616 142.2094 220.7292 142.2094 216.3747 C 142.2094 212.0202 143.7645 208.2878 146.8749 205.1774 C 149.9852 202.0671 153.7177 200.5119 158.0722 200.5119 C 162.1156 200.5119 165.848 202.0671 169.2694 205.4884 C 172.6908 208.9099 174.246 212.6422 174.246 216.6857 C 174.246 220.7292 172.3798 224.4616 169.2694 227.572 Z" fill-rule="evenodd" fill="#468847" fill-opacity="1" stroke="none" stroke-opacity="1" stroke-width="0.3527778" stroke-linecap="butt" stroke-linejoin="miter"/>
</defs>
<g>
<g>
<use xlink:href="#path_121829106f55360bf2e434b5de7c8956"/>
</g>
</g>
<g>
<use xlink:href="#path_20269f26d4d5e2a507f9c08937156e52"/>
</g>
<g>
<use xlink:href="#path_628b67e23e1315089626aa4c96abda9c"/>
</g>
</svg>