<?xml version="1.0" encoding="utf-8"?>
<!DOCTYPE svg PUBLIC "-//W3C//DTD SVG 1.1//EN" "http://www.w3.org/Graphics/SVG/1.1/DTD/svg11.dtd">
<!-- exported from Silhouette Studio® Business Edition V4.4.259ssbe -->
<svg version="1.1" xmlns="http://www.w3.org/2000/svg" xmlns:xlink="http://www.w3.org/1999/xlink" width="304.8mm" height="304.8mm" viewBox="0 0 304.8 304.8">
<defs>
<path id="path_c31eaa18924dd196fbb9722a107113a6" d="M 286.6607 222.1722 L 179.9757 34.30693 C 167.2233 11.9124 134.8756 11.9124 122.1232 34.30693 L 15.43814 222.1722 C 2.685708 244.2557 18.85953 271.9378 44.36441 271.9378 L 257.4234 271.9378 C 283.2393 271.9378 299.1021 244.5667 286.6607 222.1722 Z M 151.3605 79.09601 C 161.3136 79.09601 166.2902 88.11602 166.2902 106.4671 C 166.2902 116.4202 165.046 130.1058 162.2467 147.8348 C 159.4474 165.5638 157.5812 176.45 155.715 179.8714 C 154.4708 182.3597 153.2267 183.6039 151.3605 183.6039 C 149.1832 183.6039 147.6281 182.6707 146.6949 180.4935 C 145.1398 177.6942 142.9625 167.7411 140.1632 150.6341 C 137.3639 133.5272 136.1198 118.5975 135.8087 106.7781 C 135.8087 88.11602 141.0963 79.09601 151.3605 79.09601 Z M 162.2467 224.0384 C 159.1364 227.1488 155.4039 228.7039 151.0495 228.7039 C 146.695 228.7039 142.9625 227.1488 139.8522 224.0384 C 136.7418 220.9281 135.1866 217.1956 135.1866 212.8411 C 135.1866 208.4866 136.7418 204.7542 139.8522 201.6439 C 142.9625 198.5335 146.695 196.9783 151.0495 196.9783 C 155.0929 196.9783 158.8253 198.5335 162.2467 201.9549 C 165.6681 205.3763 167.2233 209.1087 167.2233 213.1522 C 167.2233 217.1956 165.3571 220.9281 162.2467 224.0384 Z" fill-rule="evenodd" fill="#005580" fill-opacity="1" stroke="none" stroke-opacity="1" stroke-width="0.3527778" stroke-linecap="butt" stroke-linejoin="miter"/>
</defs>
<g>
<use xlink:href="#path_c31eaa18924dd196fbb9722a107113a6"/>
</g>
</svg>