<?xml version="1.0" encoding="utf-8"?>
<!DOCTYPE svg PUBLIC "-//W3C//DTD SVG 1.1//EN" "http://www.w3.org/Graphics/SVG/1.1/DTD/svg11.dtd">
<!-- exported from Silhouette Studio® Business Edition V4.4.259ssbe -->
<svg version="1.1" xmlns="http://www.w3.org/2000/svg" xmlns:xlink="http://www.w3.org/1999/xlink" width="304.8mm" height="304.8mm" viewBox="0 0 304.8 304.8">
<defs>
<path id="path_accea4ed3f1f8004218e407844975f64" d="M 140.0934 276.4071 C 100.766 265.4248 52.27972 204.9273 50.11096 160.8438 C 49.81791 129.7838 49.67247 104.933 49.93626 77.30492 C 75.68196 57.7653 119.2225 38.65403 151.663 26.51326 C 190.4531 40.41916 225.2198 57.10174 254.165 76.74141 C 254.9127 103.4932 255.0458 134.5825 254.3767 160.5973 C 255.5346 198.3333 192.4068 278.188 151.943 278.1527 C 148.1321 278.1494 144.1617 277.5432 140.0934 276.4071 Z M 140.7261 106.4673 C 140.7261 112.8554 145.9152 118.0445 152.3034 118.0445 C 158.6915 118.0445 163.8807 112.8554 163.8807 106.4673 C 163.8807 100.0791 158.6915 94.89 152.3034 94.89 C 145.9152 94.89 140.7261 100.0791 140.7261 106.4673 Z M 141.003 151.534 L 141.003 194.4988 C 141.003 202.8928 146.0639 209.7112 152.2943 209.7112 L 152.3125 209.7112 C 158.5428 209.7112 163.6038 202.8928 163.6038 194.4988 L 163.6038 151.534 C 163.6038 143.14 158.5428 136.3216 152.3125 136.3216 L 152.2943 136.3216 C 146.0639 136.3216 141.003 143.14 141.003 151.534 Z" fill-rule="evenodd" fill="#BD362F" fill-opacity="1" stroke="none" stroke-opacity="1" stroke-width="0.1" stroke-linecap="round" stroke-linejoin="round"/>
</defs>
<g>
<use xlink:href="#path_accea4ed3f1f8004218e407844975f64"/>
</g>
</svg>