<?xml version="1.0" encoding="utf-8"?>
<!DOCTYPE svg PUBLIC "-//W3C//DTD SVG 1.1//EN" "http://www.w3.org/Graphics/SVG/1.1/DTD/svg11.dtd">
<!-- exported from Silhouette Studio® Business Edition V4.4.259ssbe -->
<svg version="1.1" xmlns="http://www.w3.org/2000/svg" xmlns:xlink="http://www.w3.org/1999/xlink" width="30mm" height="30mm" viewBox="0 0 30 30">
<defs>
<path id="path_cfb4c3ec831bbcb8a57173bd61b4c451" d="M 21.35 17.47141 C 21.16287 17.47141 20.98341 17.54575 20.8511 17.67806 C 20.71878 17.81038 20.64444 17.98985 20.64444 18.17698 L 20.64444 20.9992 L 9.355555 20.9992 L 9.355555 18.17698 C 9.355555 17.98985 9.281219 17.81038 9.148901 17.67806 C 9.016584 17.54575 8.837125 17.47141 8.65 17.47141 C 8.462874 17.47141 8.283414 17.54575 8.151097 17.67806 C 8.018779 17.81038 7.944443 17.98985 7.944443 18.17698 L 7.944443 21.70474 C 7.944444 21.89187 8.018779 22.07134 8.151097 22.20366 C 8.283413 22.33597 8.462873 22.4103 8.649998 22.4103 L 21.35 22.4103 C 21.53713 22.4103 21.71659 22.33597 21.8489 22.20366 C 21.98122 22.07134 22.05556 21.89187 22.05556 21.70474 L 22.05556 18.17698 C 22.05556 17.98985 21.98122 17.81038 21.8489 17.67806 C 21.71659 17.54575 21.53713 17.47141 21.35 17.47141 Z" fill-rule="evenodd" fill="#1B7837" fill-opacity="1" stroke="#1B7837" stroke-opacity="1" stroke-width="0.3527778" stroke-linecap="butt" stroke-linejoin="miter"/>
<path id="path_8750985e1ae1485eceaf63faed3ab03f" d="M 14.46731 18.50506 L 14.492 18.52975 L 14.52728 18.55798 C 14.57067 18.59284 14.61804 18.62244 14.66839 18.64617 L 14.66839 18.64617 L 14.66839 18.64617 L 14.76717 18.67792 L 14.80244 18.67792 C 14.8482 18.6824 14.89428 18.68241 14.94003 18.67792 C 14.98579 18.68225 15.03185 18.68225 15.07761 18.67792 L 15.07761 18.67792 C 15.20997 18.65285 15.33238 18.59042 15.43039 18.498 L 20.23169 13.91189 C 20.39382 13.78999 20.49564 13.6042 20.51115 13.40194 C 20.52667 13.19969 20.45439 13.00054 20.31276 12.85533 C 20.17112 12.71011 19.97384 12.63289 19.77126 12.64335 C 19.56869 12.65382 19.38041 12.75097 19.2545 12.91 L 15.67028 16.38839 L 15.70556 8.214527 C 15.70269 8.03561 15.62447 7.866207 15.49014 7.747994 C 15.3558 7.629781 15.17783 7.573733 15 7.593638 L 15 7.593638 C 14.82337 7.573824 14.64651 7.628947 14.51242 7.745609 C 14.37832 7.862272 14.29926 8.029797 14.29445 8.207472 L 14.26622 16.32137 L 10.73844 12.88884 C 10.60371 12.75915 10.42334 12.68741 10.23636 12.69005 C 10.04937 12.69269 9.871099 12.76951 9.740749 12.90359 C 9.6104 13.03768 9.53865 13.21806 9.5413 13.40504 C 9.54394 13.59202 9.620749 13.7703 9.75484 13.90065 L 14.46731 18.50506 Z" fill-rule="evenodd" fill="#1B7837" fill-opacity="1" stroke="#1B7837" stroke-opacity="1" stroke-width="0.3527778" stroke-linecap="butt" stroke-linejoin="miter"/>
</defs>
<g>
<g>
<g>
<g>
<use xlink:href="#path_cfb4c3ec831bbcb8a57173bd61b4c451"/>
</g>
</g>
</g>
<g>
<g>
<g>
<use xlink:href="#path_8750985e1ae1485eceaf63faed3ab03f"/>
</g>
</g>
</g>
</g>
</svg>