<?xml version="1.0" encoding="utf-8"?>
<!DOCTYPE svg PUBLIC "-//W3C//DTD SVG 1.1//EN" "http://www.w3.org/Graphics/SVG/1.1/DTD/svg11.dtd">
<!-- exported from Silhouette Studio® Business Edition V4.4.259ssbe -->
<svg version="1.1" xmlns="http://www.w3.org/2000/svg" xmlns:xlink="http://www.w3.org/1999/xlink" width="304.8mm" height="304.8mm" viewBox="0 0 304.8 304.8">
<defs>
<path id="path_2d514fd34cb9a75d56051b293b39bb28" d="M 154.042 14.50006 C 81.74847 14.50006 22.9755 73.27305 22.9755 145.5666 C 22.9755 217.8601 81.74847 276.6331 154.042 276.6331 C 226.3355 276.6331 285.1086 217.8601 285.1086 145.5666 C 285.1086 73.27304 226.3355 14.50006 154.042 14.50006 Z M 39.53127 145.5666 C 39.53127 115.4903 51.12031 88.17325 70.15944 67.75446 C 71.26315 68.30632 72.36687 68.85817 73.74651 69.96189 C 74.5743 70.78968 74.85024 76.03235 74.29839 81.82687 L 74.29839 82.10278 L 74.29839 82.37872 C 74.29839 82.37872 78.98918 93.96776 74.57431 103.3494 C 69.60758 113.2828 70.7113 129.2867 73.19466 132.8738 C 75.40211 135.9091 86.16335 149.9815 87.81892 151.637 C 88.92264 152.7408 92.78566 162.9501 93.06158 164.3298 C 93.33751 165.7094 100.5117 174.2633 107.9618 174.2633 C 112.3766 173.9873 117.3434 176.4707 120.6545 178.1263 C 122.3101 178.9541 123.4138 179.5059 124.2416 179.7818 C 124.5175 179.7818 125.0694 180.6096 125.3453 181.4374 C 126.4491 183.3689 128.1046 186.1282 131.9677 188.3356 C 133.0714 188.8875 134.1751 189.4394 135.2788 190.2672 C 139.1418 192.4746 144.6604 195.5098 144.9363 196.3376 C 144.9363 196.6135 144.1086 197.4413 143.5567 198.2691 C 141.0733 201.0284 137.2103 205.7192 138.314 211.7897 C 139.9696 220.3435 151.8345 230.5529 155.6976 233.0363 C 158.1809 234.6918 157.0772 252.0754 155.6976 255.3865 C 155.1457 256.4903 154.8698 258.4218 155.1457 260.3533 C 154.5939 260.3533 154.3179 260.3533 153.7661 260.3533 C 90.85416 260.0774 39.53127 208.7545 39.53127 145.5666 Z M 176.9442 257.8699 C 178.3238 256.2143 179.9794 254.5587 180.2553 254.0069 C 180.5312 253.731 181.6349 253.1791 182.1868 252.6272 C 184.1183 251.5235 186.0498 250.4198 186.8776 249.0401 C 188.2572 247.1086 192.1203 242.9697 193.7758 242.1419 C 195.9833 241.0382 209.5038 228.8973 210.3316 226.9658 C 212.539 221.9991 215.2984 216.4805 216.9539 215.1008 C 219.9891 212.6174 217.2299 208.2026 216.1261 206.547 L 215.8502 206.2711 C 214.7465 204.3396 207.0205 203.5118 205.9167 203.7877 C 204.5371 203.7877 197.9148 200.2006 197.6389 199.0969 C 197.6389 196.8895 191.2925 190.819 189.6369 190.819 C 188.8091 190.819 184.9461 189.9913 183.0146 187.5079 C 180.5312 184.4727 171.4256 182.2652 168.9422 182.2652 C 166.4588 182.2652 162.8717 181.7134 160.3884 180.6096 C 158.1809 179.5059 154.318 181.1615 150.4549 182.8171 C 149.6271 183.093 148.7993 183.3689 148.5234 183.6449 C 147.1437 183.9208 139.6937 182.5411 138.0381 181.7133 C 137.4862 181.1615 137.2103 178.4022 137.2103 176.7466 C 136.9344 174.8151 136.9344 173.7114 136.6584 172.8836 C 136.1066 171.7799 134.451 171.504 130.8639 170.4002 C 130.0361 170.1243 128.9324 169.8484 128.3806 169.5725 C 128.6565 169.0206 128.9324 168.1928 129.2084 167.365 C 130.3121 164.6057 131.1399 162.6742 130.588 161.5705 C 130.3121 161.0186 130.0361 160.7427 129.4843 160.7427 C 127.8287 160.4668 125.3453 162.1224 122.862 163.7779 C 121.7582 164.6057 120.1027 165.7094 119.5508 165.9854 C 118.1712 165.9854 115.1359 164.8817 111.5488 162.6742 C 109.6173 161.5705 111.8248 154.6723 112.9285 151.637 C 113.4803 149.9815 114.0322 148.8777 114.0322 148.05 C 114.0322 147.2222 117.8952 146.1184 123.4138 146.1184 C 124.7935 146.1184 127.0009 145.8425 128.9324 145.5666 C 130.588 145.2907 132.5195 145.0147 133.6232 145.0147 C 134.451 145.0147 135.8306 147.2222 136.6584 148.3259 C 138.0381 150.5333 139.1418 151.913 140.7974 151.6371 C 143.0048 151.0852 142.7289 148.3259 142.7289 146.3944 C 142.7289 145.8425 142.7289 145.0147 142.7289 144.7388 C 143.0048 143.6351 145.7641 138.6684 147.9715 137.5647 C 150.7308 135.9091 154.3179 130.6664 153.4901 128.1831 C 153.4901 127.0793 158.1809 123.7682 159.8365 122.6645 C 160.6643 122.1126 161.2162 121.8367 161.4921 121.5607 C 162.0439 121.2848 162.5958 121.0089 163.1476 120.457 C 164.8032 119.6292 167.0107 118.5255 167.0107 115.4903 C 167.0107 113.8347 172.2533 113.0069 175.2885 112.455 C 176.1163 112.455 176.6682 112.1791 177.22 112.1791 C 179.1516 111.9032 180.2553 111.3513 180.8071 110.5236 C 181.359 109.4198 180.8071 108.0402 180.2553 106.6605 C 179.9793 106.3846 179.9793 105.8328 179.7034 105.2809 C 178.5997 102.7975 179.1516 100.866 181.6349 99.21045 C 182.7386 98.38266 184.6702 98.10673 186.8776 98.10673 C 189.085 97.8308 191.2925 97.55486 193.4999 96.72708 C 195.1555 96.17522 195.9833 95.34743 196.2592 94.24371 C 196.5351 92.86407 195.7074 91.76034 194.8795 90.65662 C 194.6036 90.10476 194.3277 89.82884 194.0518 89.27697 C 192.948 87.06955 190.7406 85.41397 189.6369 84.31025 C 188.8091 83.75838 188.2572 80.44724 187.7054 78.51573 C 187.4295 77.13609 187.1535 76.03236 186.8776 75.48049 C 186.6017 74.65272 186.0498 74.37679 185.222 74.10085 C 183.5665 73.54899 180.8071 74.37679 179.1516 75.20457 C 179.1516 74.92864 178.8756 74.10085 178.8756 73.82492 C 178.5997 72.7212 178.5997 71.6175 177.7719 70.7897 C 177.496 70.51378 176.3923 69.41005 175.2885 68.58226 C 173.633 67.20261 171.7015 65.27112 170.3218 63.89146 C 169.494 63.06367 168.6663 63.06367 168.1144 63.06367 C 166.1829 63.3396 164.5273 65.54704 163.1476 68.0304 C 162.8717 68.30634 162.8717 68.58226 162.5958 68.85818 C 160.1124 72.44527 159.8365 75.20456 161.4921 76.58421 C 161.4921 76.58421 161.768 77.41201 161.2162 78.51573 C 160.3884 80.44724 159.2847 81.82688 158.4569 81.82688 L 158.4569 81.82688 C 156.2494 81.55096 155.6976 84.58617 155.1457 87.62139 C 154.8698 88.72511 154.5938 90.38068 154.3179 90.93256 C 153.7661 90.38068 153.2142 88.72511 153.2142 83.75838 L 153.2142 83.20653 C 153.2142 82.65467 152.9382 82.10281 152.6623 81.55095 C 152.1105 80.99908 151.0068 80.99908 150.179 80.99908 C 149.0752 80.99908 148.5234 80.99908 148.2475 80.72315 C 147.1437 78.79165 141.0733 76.30828 138.59 75.48049 C 138.59 72.16934 138.59 68.85818 138.59 68.30633 C 139.4177 67.20262 148.7993 60.85624 151.0068 60.02844 C 154.042 58.92473 161.4921 53.95799 163.1477 52.85428 C 164.5273 52.02649 164.8032 50.92278 164.5273 50.09499 C 164.2514 47.61162 159.8365 45.95604 157.905 45.40418 C 156.5254 42.09303 154.3179 42.09303 151.5587 42.09303 C 150.179 42.09303 148.7994 42.09303 146.8679 41.8171 C 139.6937 40.71338 133.8992 40.43745 128.9324 40.98931 C 125.6213 41.54116 121.4823 40.71338 118.1712 39.88559 C 116.5156 39.60966 115.136 39.33373 113.7563 39.0578 C 113.2044 39.0578 112.3767 39.0578 111.5489 39.0578 C 124.7935 33.53921 139.4178 30.50399 154.5939 30.50399 C 170.0459 30.50399 184.6702 33.53921 198.1907 39.33372 C 198.4666 40.71337 199.0185 42.36895 199.8463 44.02453 C 201.2259 47.33568 203.9852 53.1302 203.7093 57.26914 C 203.7093 61.40808 204.2612 66.09889 203.7093 67.47854 C 203.1575 68.85818 212.2631 78.79166 214.1946 79.06758 C 216.1261 79.34351 217.5058 77.96386 218.6095 76.03236 C 219.9891 74.10084 221.6447 71.89342 225.2318 69.13412 C 227.4392 67.47853 233.2338 66.65076 237.3727 66.37482 C 241.5117 70.51376 245.0987 74.92863 248.4099 79.89537 C 247.5821 80.72314 246.4784 81.27502 245.9265 81.82687 C 244.271 83.48245 239.5802 88.17326 240.132 91.48441 C 240.6839 95.0715 244.5469 99.48637 248.9618 101.6938 C 253.6526 104.1772 254.2044 108.868 254.2044 109.6957 C 254.2044 110.5235 260.8268 114.6625 260.8268 114.6625 C 260.8268 114.6625 258.0674 120.1811 256.6878 120.1811 C 255.3082 120.1811 254.2044 125.6997 254.2044 127.9071 C 254.2044 130.1145 256.9637 133.9775 259.723 136.185 C 262.4823 138.3924 267.1731 132.322 267.1731 132.322 L 268.0009 132.0461 C 268.2768 135.6331 268.5528 139.2202 268.8287 142.8073 C 264.9657 143.3591 259.999 145.2906 258.6193 146.3944 C 256.6878 148.0499 252.5489 161.2946 250.6174 162.6742 C 248.6858 164.0539 244.8228 182.2652 244.5469 184.1967 C 244.271 185.5764 250.0654 196.8895 253.9285 201.5803 C 237.9245 230.001 210.0557 250.9717 176.9442 257.8699 Z" fill-rule="evenodd" fill="#468847" fill-opacity="1" stroke="none" stroke-opacity="1" stroke-width="0.3527778" stroke-linecap="butt" stroke-linejoin="miter"/>
</defs>
<g>
<use xlink:href="#path_2d514fd34cb9a75d56051b293b39bb28"/>
</g>
</svg>