<?xml version="1.0" encoding="utf-8"?>
<!DOCTYPE svg PUBLIC "-//W3C//DTD SVG 1.1//EN" "http://www.w3.org/Graphics/SVG/1.1/DTD/svg11.dtd">
<!-- exported from Silhouette Studio® Business Edition V4.4.259ssbe -->
<svg version="1.1" xmlns="http://www.w3.org/2000/svg" xmlns:xlink="http://www.w3.org/1999/xlink" width="39mm" height="44.09722mm" viewBox="0 0 39 44.09722">
<defs>
<path id="path_807d0091027580b5d0fa50d193ecb075" d="M 31.89248 13.41532 L 6.60538 13.41532 C 5.748635 13.41625 4.927247 13.757 4.321436 14.36282 C 3.715625 14.96863 3.37487 15.79002 3.373936 16.64676 L 3.373936 26.21762 C 3.373936 26.5769 3.516659 26.92147 3.770709 27.17552 C 4.024758 27.42957 4.369323 27.57229 4.728602 27.57229 L 10.57766 27.57229 L 10.57766 34.71956 C 10.55348 35.09284 10.6785 35.46045 10.92524 35.74159 C 11.17198 36.02273 11.52026 36.1944 11.89352 36.21886 L 26.60435 36.21886 C 26.97761 36.19439 27.32588 36.02272 27.57262 35.74158 C 27.81936 35.46045 27.94438 35.09284 27.9202 34.71956 L 27.92021 27.57229 L 33.76926 27.57229 C 34.12855 27.57229 34.47311 27.42957 34.72716 27.17552 C 34.98121 26.92147 35.12394 26.5769 35.12394 26.21762 L 35.12393 16.64676 C 35.12299 15.79001 34.78224 14.96863 34.17643 14.36282 C 33.57062 13.75701 32.74923 13.41625 31.89248 13.41532 Z M 25.80354 34.1022 L 12.69433 34.1022 L 12.69433 23.75876 L 25.80354 23.75876 L 25.80354 34.1022 Z M 28.80215 17.13712 C 28.60471 17.1368 28.41257 17.07326 28.25387 16.95582 C 28.09516 16.83838 27.97823 16.6732 27.92021 16.48448 C 27.8924 16.3965 27.87696 16.30508 27.87435 16.21284 C 27.87696 16.11946 27.89239 16.02687 27.92021 15.93768 C 28.00245 15.67394 28.19836 15.46082 28.45426 15.35671 C 28.71016 15.2526 28.99921 15.26842 29.24222 15.39982 C 29.48523 15.53123 29.65672 15.76446 29.7097 16.03559 C 29.76268 16.30673 29.69159 16.58735 29.51592 16.80057 C 29.34025 17.01379 29.07842 17.13725 28.80215 17.13712 Z M 31.62437 17.13712 C 31.32713 17.13712 31.04789 16.9947 30.87335 16.75409 C 30.69882 16.51348 30.65014 16.20382 30.74242 15.92126 C 30.83471 15.63871 31.05679 15.41747 31.33969 15.32627 C 31.62259 15.23506 31.93207 15.28492 32.17202 15.46037 C 32.41196 15.63582 32.55331 15.9156 32.55218 16.21284 C 32.55219 16.45737 32.45529 16.69193 32.28271 16.86516 C 32.11014 17.03839 31.87595 17.13618 31.63143 17.13712 L 31.62437 17.13712 Z" fill-rule="evenodd" fill="#1B7837" fill-opacity="1" stroke="none" stroke-opacity="1" stroke-width="0.3527778" stroke-linecap="butt" stroke-linejoin="miter"/>
<path id="path_46776d76ffd3df2fa679535d4e2d1190" d="M 27.92021 11.51032 L 27.92021 7.982542 C 27.94439 7.609262 27.81937 7.241655 27.57263 6.960514 C 27.32588 6.679373 26.97761 6.507704 26.60435 6.483237 L 11.89352 6.483237 C 11.52026 6.507705 11.17198 6.679374 10.92524 6.960514 C 10.6785 7.241655 10.55348 7.609262 10.57766 7.982542 L 10.57766 11.51032 L 27.92021 11.51032 Z" fill-rule="evenodd" fill="#1B7837" fill-opacity="1" stroke="none" stroke-opacity="1" stroke-width="0.3527778" stroke-linecap="butt" stroke-linejoin="miter"/>
</defs>
<g>
<g>
<use xlink:href="#path_807d0091027580b5d0fa50d193ecb075"/>
</g>
<g>
<use xlink:href="#path_46776d76ffd3df2fa679535d4e2d1190"/>
</g>
</g>
</svg>