<?xml version="1.0" encoding="utf-8"?>
<!DOCTYPE svg PUBLIC "-//W3C//DTD SVG 1.1//EN" "http://www.w3.org/Graphics/SVG/1.1/DTD/svg11.dtd">
<!-- exported from Silhouette Studio® Business Edition V4.4.259ssbe -->
<svg version="1.1" xmlns="http://www.w3.org/2000/svg" xmlns:xlink="http://www.w3.org/1999/xlink" width="304.8mm" height="304.8mm" viewBox="0 0 304.8 304.8">
<defs>
<path id="path_d028df68a94f71d1c960bb6570cec351" d="M 244.2758 19.24905 L 43.67535 19.24905 C 28.61687 19.24905 16.2474 31.61852 16.2474 46.677 L 16.2474 247.2775 C 16.2474 262.336 28.61687 274.7055 43.67535 274.7055 L 244.2758 274.7055 C 259.3344 274.7055 271.7038 262.336 271.7038 247.2775 L 271.7038 46.677 C 271.7038 31.61852 259.3344 19.24905 244.2758 19.24905 Z M 102.2959 213.6648 C 102.2959 216.0849 100.1447 218.2361 97.72456 218.2361 L 73.52341 218.2361 C 71.1033 218.2361 68.95209 216.0849 68.95209 213.6648 L 68.95209 114.1713 C 68.95209 111.7512 71.1033 109.5999 73.52341 109.5999 L 97.72456 109.5999 C 100.1447 109.5999 102.2959 111.7512 102.2959 114.1713 L 102.2959 213.6648 Z M 160.6475 213.6648 C 160.6475 216.0849 158.4963 218.2361 156.0761 218.2361 L 131.875 218.2361 C 129.4549 218.2361 127.3037 216.0849 127.3037 213.6648 L 127.3037 80.2897 C 127.3037 77.86958 129.4549 75.71836 131.875 75.71836 L 156.0761 75.71836 C 158.4963 75.71836 160.6475 77.86958 160.6475 80.2897 L 160.6475 213.6648 Z M 218.9991 213.6648 C 218.9991 216.0849 216.8479 218.2361 214.4278 218.2361 L 190.2267 218.2361 C 187.8065 218.2361 185.6553 216.0849 185.6553 213.6648 L 185.6553 145.0949 C 185.6553 142.6748 187.8065 140.5236 190.2267 140.5236 L 214.4278 140.5236 C 216.8479 140.5236 218.9991 142.6748 218.9991 145.0949 L 218.9991 213.6648 Z" fill-rule="evenodd" fill="#468847" fill-opacity="1" stroke="none" stroke-opacity="1" stroke-width="0.3527778" stroke-linecap="butt" stroke-linejoin="miter"/>
</defs>
<g>
<use xlink:href="#path_d028df68a94f71d1c960bb6570cec351"/>
</g>
</svg>