<?xml version="1.0" encoding="utf-8"?>
<!DOCTYPE svg PUBLIC "-//W3C//DTD SVG 1.1//EN" "http://www.w3.org/Graphics/SVG/1.1/DTD/svg11.dtd">
<!-- exported from Silhouette Studio® Business Edition V4.4.259ssbe -->
<svg version="1.1" xmlns="http://www.w3.org/2000/svg" xmlns:xlink="http://www.w3.org/1999/xlink" width="304.8mm" height="304.8mm" viewBox="0 0 304.8 304.8">
<defs>
<path id="path_392fb211487b6bbc3c5fc7b5a87fe919" d="M 140.0934 276.4071 C 100.766 265.4248 52.27969 204.9273 50.11092 160.8438 C 49.81787 129.7838 49.67244 104.933 49.93622 77.30489 C 75.68193 57.76528 119.2225 38.654 151.663 26.51323 C 190.4531 40.41913 225.2199 57.10171 254.165 76.74138 C 254.9127 103.4932 255.0458 134.5824 254.3767 160.5973 C 255.5346 198.3333 192.4068 278.188 151.943 278.1527 C 148.1321 278.1494 144.1617 277.5432 140.0934 276.4071 Z M 140.7261 106.4672 C 140.7261 112.8554 145.9152 118.0445 152.3034 118.0445 C 158.6915 118.0445 163.8806 112.8554 163.8806 106.4672 C 163.8806 100.0791 158.6915 94.88998 152.3034 94.88998 C 145.9152 94.88998 140.7261 100.0791 140.7261 106.4672 Z M 141.003 151.534 L 141.003 194.4988 C 141.003 202.8928 146.0639 209.7112 152.2943 209.7112 L 152.3125 209.7112 C 158.5428 209.7112 163.6038 202.8927 163.6038 194.4987 L 163.6038 151.534 C 163.6038 143.14 158.5428 136.3216 152.3124 136.3216 L 152.2943 136.3216 C 146.0639 136.3216 141.003 143.14 141.003 151.534 Z" fill-rule="evenodd" fill="#F68F27" fill-opacity="1" stroke="none" stroke-opacity="1" stroke-width="0.1" stroke-linecap="round" stroke-linejoin="round"/>
</defs>
<g>
<use xlink:href="#path_392fb211487b6bbc3c5fc7b5a87fe919"/>
</g>
</svg>