<?xml version="1.0" encoding="utf-8"?>
<!DOCTYPE svg PUBLIC "-//W3C//DTD SVG 1.1//EN" "http://www.w3.org/Graphics/SVG/1.1/DTD/svg11.dtd">
<!-- exported from Silhouette Studio® Business Edition V4.4.259ssbe -->
<svg version="1.1" xmlns="http://www.w3.org/2000/svg" xmlns:xlink="http://www.w3.org/1999/xlink" width="304.8mm" height="304.8mm" viewBox="0 0 304.8 304.8">
<defs>
<path id="path_419e75db24d8b34bc9f1dc1f52858754" d="M -524.0326 -328.7162 C -524.0326 -328.7162 -567.213 -301.2908 -588.2197 -256.3598 C -606.3088 -217.264 -594.6384 -172.3331 -566.046 -144.3241 C -531.6183 -200.342 -507.1105 -244.6895 -417.2485 -300.1238 C -417.2485 -300.1238 -498.3577 -233.6026 -545.6228 -128.5691 C -532.2018 -120.3998 -516.4468 -115.7317 -499.5248 -115.1482 C -407.3287 -112.8141 -380.4868 -245.8565 -374.6516 -285.5358 C -367.0659 -335.7184 -319.2173 -366.0614 -316.8832 -366.645 C -320.3843 -367.2285 -424.2508 -391.1527 -524.0326 -328.7162 Z" fill-rule="evenodd" fill="#468847" fill-opacity="1" stroke="none" stroke-opacity="1" stroke-width="0.3527778" stroke-linecap="butt" stroke-linejoin="miter"/>
<path id="path_e8b5ed9a8c774be8e34dd6724ad43eb4" d="M -80.94722 -374.4297 C -153.2405 -374.4297 -212.0133 -315.6569 -212.0133 -243.3637 C -212.0133 -171.0704 -153.2405 -112.2976 -80.94722 -112.2976 C -8.653969 -112.2976 50.11885 -171.0704 50.11885 -243.3637 C 50.11885 -315.657 -8.653969 -374.4297 -80.94722 -374.4297 Z M -195.4576 -243.3637 C -195.4576 -273.4399 -183.8685 -300.7568 -164.8295 -321.1755 C -163.7258 -320.6236 -162.6221 -320.0718 -161.2424 -318.9681 C -160.4146 -318.1403 -160.1387 -312.8976 -160.6906 -307.1031 L -160.6906 -306.8272 L -160.6906 -306.5513 C -160.6906 -306.5513 -155.9998 -294.9623 -160.4146 -285.5807 C -165.3813 -275.6473 -164.2776 -259.6434 -161.7943 -256.0564 C -159.5868 -253.0211 -148.8256 -238.9488 -147.1701 -237.2932 C -146.0663 -236.1895 -142.2033 -225.9801 -141.9274 -224.6005 C -141.6515 -223.2209 -134.4773 -214.6671 -127.0273 -214.6671 C -122.6124 -214.943 -117.6457 -212.4597 -114.3346 -210.8041 C -112.679 -209.9763 -111.5753 -209.4244 -110.7475 -209.1485 C -110.4716 -209.1485 -109.9197 -208.3207 -109.6438 -207.493 C -108.5401 -205.5614 -106.8845 -202.8022 -103.0215 -200.5947 C -101.9178 -200.0429 -100.8141 -199.491 -99.71036 -198.6632 C -95.84736 -196.4558 -90.32878 -193.4206 -90.05287 -192.5928 C -90.05287 -192.3169 -90.88066 -191.4891 -91.43251 -190.6613 C -93.91587 -187.902 -97.77887 -183.2112 -96.67514 -177.1408 C -95.01957 -168.587 -83.15468 -158.3777 -79.29167 -155.8943 C -76.80832 -154.2387 -77.91202 -136.8553 -79.29167 -133.5441 C -79.84352 -132.4404 -80.11945 -130.5089 -79.84351 -128.5774 C -80.39536 -128.5774 -80.67131 -128.5774 -81.22318 -128.5774 C -144.1349 -128.8533 -195.4576 -180.176 -195.4576 -243.3637 Z M -58.04518 -131.0607 C -56.66553 -132.7163 -55.00995 -134.3719 -54.73401 -134.9238 C -54.4581 -135.1997 -53.35439 -135.7515 -52.80254 -136.3034 C -50.87103 -137.4071 -48.93951 -138.5108 -48.11174 -139.8904 C -46.7321 -141.8219 -42.86908 -145.9609 -41.21352 -146.7887 C -39.00609 -147.8924 -25.4856 -160.0332 -24.65781 -161.9647 C -22.45038 -166.9314 -19.69109 -172.45 -18.03552 -173.8297 C -15.00031 -176.313 -17.7596 -180.7279 -18.86331 -182.3834 L -19.13924 -182.6594 C -20.24295 -184.5909 -27.96895 -185.4187 -29.07269 -185.1427 C -30.45232 -185.1427 -37.0746 -188.7298 -37.35052 -189.8335 C -37.35052 -192.041 -43.69687 -198.1114 -45.35245 -198.1114 C -46.18024 -198.1114 -50.04323 -198.9392 -51.97473 -201.4225 C -54.45808 -204.4577 -63.56374 -206.6652 -66.04709 -206.6652 C -68.53044 -206.6652 -72.11752 -207.217 -74.60088 -208.3207 C -76.8083 -209.4245 -80.67128 -207.7689 -84.5343 -206.1133 C -85.36209 -205.8374 -86.18987 -205.5614 -86.46581 -205.2855 C -87.84546 -205.0096 -95.2955 -206.3892 -96.95108 -207.217 C -97.50294 -207.7689 -97.77886 -210.5282 -97.77886 -212.1837 C -98.05479 -214.1152 -98.05479 -215.2189 -98.33072 -216.0467 C -98.88258 -217.1505 -100.5381 -217.4264 -104.1252 -218.5301 C -104.953 -218.806 -106.0567 -219.082 -106.6086 -219.3579 C -106.3326 -219.9097 -106.0567 -220.7375 -105.7808 -221.5653 C -104.6771 -224.3246 -103.8493 -226.2561 -104.4011 -227.3598 C -104.6771 -227.9117 -104.953 -228.1876 -105.5049 -228.1876 C -107.1604 -228.4635 -109.6438 -226.8079 -112.1271 -225.1524 C -113.2309 -224.3246 -114.8864 -223.2209 -115.4383 -222.9449 C -116.8179 -222.9449 -119.8531 -224.0486 -123.4402 -226.2561 C -125.3717 -227.3598 -123.1643 -234.258 -122.0606 -237.2932 C -121.5087 -238.9488 -120.9569 -240.0525 -120.9569 -240.8803 C -120.9569 -241.7081 -117.0939 -242.8118 -111.5753 -242.8118 C -110.1956 -242.8118 -107.9882 -243.0878 -106.0567 -243.3636 C -104.4011 -243.6396 -102.4696 -243.9155 -101.3659 -243.9155 C -100.5381 -243.9155 -99.15851 -241.7081 -98.33072 -240.6044 C -96.95108 -238.3969 -95.84736 -237.0173 -94.1918 -237.2932 C -91.98436 -237.845 -92.26029 -240.6044 -92.26029 -242.5359 C -92.26029 -243.0877 -92.26029 -243.9155 -92.26029 -244.1914 C -91.98436 -245.2951 -89.2251 -250.2619 -87.01767 -251.3656 C -84.25839 -253.0211 -80.67133 -258.2638 -81.49908 -260.7471 C -81.49908 -261.8508 -76.8083 -265.162 -75.15274 -266.2657 C -74.32495 -266.8176 -73.77307 -267.0935 -73.49718 -267.3694 C -72.94533 -267.6454 -72.39348 -267.9213 -71.84161 -268.4731 C -70.18604 -269.3009 -67.97861 -270.4047 -67.97861 -273.4399 C -67.97861 -275.0955 -62.73596 -275.9232 -59.70076 -276.475 C -58.87297 -276.475 -58.32111 -276.751 -57.76926 -276.751 C -55.83775 -277.0269 -54.73404 -277.5788 -54.18219 -278.4066 C -53.63034 -279.5103 -54.18219 -280.8899 -54.73404 -282.2696 C -55.00998 -282.5455 -55.00999 -283.0974 -55.28589 -283.6492 C -56.38962 -286.1326 -55.83774 -288.0641 -53.35442 -289.7196 C -52.25069 -290.5474 -50.3192 -290.8233 -48.11174 -290.8233 C -45.90431 -291.0992 -43.69691 -291.3752 -41.48949 -292.203 C -39.83389 -292.7548 -39.00612 -293.5827 -38.73018 -294.6864 C -38.45427 -296.066 -39.28203 -297.1697 -40.10983 -298.2734 C -40.38574 -298.8253 -40.6617 -299.1012 -40.93764 -299.6531 C -42.04135 -301.8605 -44.24876 -303.5161 -45.35246 -304.6198 C -46.18025 -305.1716 -46.73213 -308.4828 -47.28398 -310.4143 C -47.55989 -311.7939 -47.83583 -312.8976 -48.11174 -313.4495 C -48.38768 -314.2773 -48.93953 -314.5532 -49.76732 -314.8291 C -51.42288 -315.381 -54.18216 -314.5532 -55.83774 -313.7254 C -55.83774 -314.0014 -56.11368 -314.8292 -56.11368 -315.1051 C -56.38962 -316.2088 -56.38962 -317.3125 -57.21739 -318.1403 C -57.49333 -318.4162 -58.59705 -319.5199 -59.70074 -320.3477 C -61.35631 -321.7273 -63.28783 -323.6588 -64.66748 -325.0385 C -65.49524 -325.8663 -66.32304 -325.8663 -66.87491 -325.8663 C -68.80641 -325.5904 -70.46198 -323.3829 -71.84161 -320.8996 C -72.11754 -320.6236 -72.11755 -320.3477 -72.39348 -320.0718 C -74.8768 -316.4847 -75.15274 -313.7254 -73.49718 -312.3458 C -73.49718 -312.3458 -73.22124 -311.518 -73.7731 -310.4143 C -74.60089 -308.4828 -75.70462 -307.1031 -76.53241 -307.1031 L -76.53241 -307.1031 C -78.73984 -307.3791 -79.29167 -304.3438 -79.84354 -301.3086 C -80.11948 -300.2049 -80.3954 -298.5493 -80.67134 -297.9975 C -81.22319 -298.5493 -81.77504 -300.2049 -81.77504 -305.1716 L -81.77504 -305.7235 C -81.77504 -306.2754 -82.05098 -306.8272 -82.3269 -307.3791 C -82.87875 -307.9309 -83.98245 -307.9309 -84.81024 -307.9309 C -85.91396 -307.9309 -86.46582 -307.9309 -86.74173 -308.2068 C -87.84547 -310.1383 -93.91587 -312.6217 -96.39922 -313.4495 C -96.39922 -316.7606 -96.39922 -320.0718 -96.39922 -320.6236 C -95.57143 -321.7273 -86.1899 -328.0737 -83.98247 -328.9015 C -80.94725 -330.0052 -73.49719 -334.9719 -71.84161 -336.0756 C -70.46196 -336.9034 -70.18602 -338.0071 -70.46194 -338.8349 C -70.73785 -341.3183 -75.15274 -342.9739 -77.08424 -343.5257 C -78.46387 -346.8369 -80.6713 -346.8368 -83.43057 -346.8368 C -84.81023 -346.8368 -86.18987 -346.8369 -88.12137 -347.1128 C -95.29551 -348.2165 -101.09 -348.4924 -106.0567 -347.9406 C -109.3678 -347.3887 -113.5068 -348.2165 -116.8179 -349.0443 C -118.4735 -349.3202 -119.8531 -349.5961 -121.2328 -349.872 C -121.7846 -349.872 -122.6124 -349.872 -123.4402 -349.872 C -110.1956 -355.3906 -95.57142 -358.4258 -80.39536 -358.4258 C -64.94336 -358.4258 -50.31917 -355.3907 -36.79868 -349.5962 C -36.52274 -348.2165 -35.97087 -346.5609 -35.14308 -344.9054 C -33.76346 -341.5942 -31.00415 -335.7997 -31.28009 -331.6608 C -31.28009 -327.5219 -30.72824 -322.8311 -31.28009 -321.4514 C -31.83194 -320.0718 -22.7263 -310.1384 -20.7948 -309.8624 C -18.86333 -309.5865 -17.48366 -310.9662 -16.37996 -312.8976 C -15.00031 -314.8291 -13.34474 -317.0366 -9.757675 -319.7959 C -7.550247 -321.4514 -1.755752 -322.2792 2.383179 -322.5551 C 6.522125 -318.4162 10.10918 -314.0014 13.42033 -309.0347 C 12.59254 -308.2069 11.48883 -307.655 10.93698 -307.1031 C 9.281418 -305.4476 4.590637 -300.7567 5.142487 -297.4456 C 5.694336 -293.8586 9.557327 -289.4437 13.9722 -287.2363 C 18.66298 -284.7529 19.21484 -280.0622 19.21484 -279.2344 C 19.21484 -278.4066 25.83713 -274.2676 25.83713 -274.2676 C 25.83713 -274.2676 23.07785 -268.7491 21.6982 -268.7491 C 20.31854 -268.7491 19.21484 -263.2305 19.21484 -261.0231 C 19.21484 -258.8156 21.97412 -254.9526 24.73341 -252.7452 C 27.49269 -250.5378 32.18346 -256.6082 32.18346 -256.6082 L 33.01129 -256.8842 C 33.28722 -253.2971 33.56313 -249.71 33.83907 -246.123 C 29.97607 -245.5711 25.00934 -243.6396 23.62971 -242.5359 C 21.69821 -240.8803 17.55928 -227.6357 15.62778 -226.2561 C 13.69627 -224.8764 9.833282 -206.6652 9.557343 -204.7337 C 9.281433 -203.354 15.07591 -192.041 18.93893 -187.3502 C 2.935062 -158.9295 -24.93375 -137.959 -58.04518 -131.0607 Z" fill-rule="evenodd" fill="#468847" fill-opacity="1" stroke="none" stroke-opacity="1" stroke-width="0.3527778" stroke-linecap="butt" stroke-linejoin="miter"/>
<path id="path_49ad5d0f7e9beed9432d43b65ff3b6a0" d="M 430.6556 -165.9243 L 323.9709 -353.7892 C 311.2185 -376.1837 278.8709 -376.1837 266.1185 -353.7892 L 159.4338 -165.9243 C 146.6814 -143.8408 162.8552 -116.1587 188.36 -116.1587 L 401.4183 -116.1587 C 427.2342 -116.1587 443.097 -143.5298 430.6556 -165.9243 Z M 295.3557 -309.0002 C 305.3088 -309.0002 310.2853 -299.9802 310.2853 -281.6291 C 310.2853 -271.676 309.0412 -257.9905 306.2419 -240.2615 C 303.4426 -222.5325 301.5764 -211.6463 299.7102 -208.225 C 298.4661 -205.7367 297.2219 -204.4925 295.3557 -204.4925 C 293.1785 -204.4925 291.6233 -205.4256 290.6902 -207.6029 C 289.135 -210.4022 286.9578 -220.3553 284.1585 -237.4622 C 281.3592 -254.5691 280.1151 -269.4987 279.804 -281.3181 C 279.804 -299.9801 285.0916 -309.0002 295.3557 -309.0002 Z M 306.2419 -164.0581 C 303.1316 -160.9477 299.3991 -159.3925 295.0447 -159.3925 C 290.6902 -159.3925 286.9578 -160.9477 283.8475 -164.0581 C 280.7371 -167.1684 279.1819 -170.9008 279.1819 -175.2553 C 279.1819 -179.6098 280.7371 -183.3422 283.8475 -186.4526 C 286.9578 -189.5629 290.6902 -191.1181 295.0447 -191.1181 C 299.0881 -191.1181 302.8206 -189.5629 306.2419 -186.1415 C 309.6633 -182.7202 311.2185 -178.9877 311.2185 -174.9443 C 311.2185 -170.9008 309.3523 -167.1684 306.2419 -164.0581 Z" fill-rule="evenodd" fill="#468847" fill-opacity="1" stroke="none" stroke-opacity="1" stroke-width="0.3527778" stroke-linecap="butt" stroke-linejoin="miter"/>
<path id="path_48f6d01f94aa655e69b71f07e58a72ac" d="M 767.8707 -371.0916 L 567.2706 -371.0916 C 552.2121 -371.0916 539.8427 -358.7221 539.8427 -343.6636 L 539.8427 -143.0635 C 539.8427 -128.005 552.2121 -115.6355 567.2706 -115.6355 L 767.8707 -115.6355 C 782.9292 -115.6355 795.2987 -128.005 795.2987 -143.0634 L 795.2987 -343.6636 C 795.2986 -358.7221 782.9292 -371.0916 767.8707 -371.0916 Z M 625.891 -176.6761 C 625.891 -174.256 623.7399 -172.1048 621.3198 -172.1048 L 597.1187 -172.1048 C 594.6985 -172.1048 592.5472 -174.256 592.5472 -176.6761 L 592.5472 -276.1695 C 592.5472 -278.5896 594.6985 -280.7408 597.1187 -280.7408 L 621.3198 -280.7408 C 623.7399 -280.7408 625.891 -278.5896 625.891 -276.1695 L 625.891 -176.6761 Z M 684.2425 -176.6761 C 684.2425 -174.256 682.0914 -172.1048 679.6713 -172.1048 L 655.4701 -172.1048 C 653.05 -172.1048 650.8989 -174.256 650.8989 -176.6761 L 650.8989 -310.051 C 650.8989 -312.4711 653.05 -314.6223 655.4701 -314.6223 L 679.6713 -314.6223 C 682.0914 -314.6223 684.2425 -312.4711 684.2425 -310.051 L 684.2425 -176.6761 Z M 742.5941 -176.6761 C 742.5941 -174.256 740.4428 -172.1048 738.0227 -172.1048 L 713.8217 -172.1048 C 711.4016 -172.1048 709.2504 -174.256 709.2504 -176.6761 L 709.2504 -245.2459 C 709.2504 -247.666 711.4016 -249.8172 713.8217 -249.8172 L 738.0227 -249.8172 C 740.4428 -249.8172 742.5941 -247.666 742.5941 -245.2459 L 742.5941 -176.6761 Z" fill-rule="evenodd" fill="#468847" fill-opacity="1" stroke="none" stroke-opacity="1" stroke-width="0.3527778" stroke-linecap="butt" stroke-linejoin="miter"/>
<path id="path_2053783b5d3398ca0c20b407d9a8faf7" d="M 333.2867 541.6748 L 226.6017 353.8095 C 213.8493 331.415 181.5016 331.415 168.7492 353.8095 L 62.06412 541.6748 C 49.31168 563.7583 65.48551 591.4404 90.99039 591.4404 L 304.0494 591.4404 C 329.8653 591.4404 345.7281 564.0693 333.2867 541.6748 Z M 197.9864 398.5986 C 207.9395 398.5986 212.9161 407.6187 212.9161 425.9697 C 212.9161 435.9229 211.672 449.6084 208.8727 467.3374 C 206.0734 485.0664 204.2072 495.9526 202.3409 499.374 C 201.0968 501.8623 199.8526 503.1064 197.9864 503.1064 C 195.8092 503.1064 194.254 502.1733 193.3209 499.9961 C 191.7657 497.1968 189.5885 487.2437 186.7892 470.1367 C 183.9899 453.0298 182.7457 438.1001 182.4347 426.2808 C 182.4347 407.6187 187.7223 398.5986 197.9864 398.5986 Z M 208.8727 543.541 C 205.7623 546.6514 202.0299 548.2065 197.6754 548.2065 C 193.3209 548.2065 189.5885 546.6514 186.4781 543.541 C 183.3678 540.4307 181.8126 536.6982 181.8126 532.3438 C 181.8126 527.9893 183.3678 524.2568 186.4781 521.1465 C 189.5885 518.0361 193.3209 516.481 197.6754 516.481 C 201.7189 516.481 205.4513 518.0361 208.8727 521.4575 C 212.2941 524.8789 213.8493 528.6113 213.8493 532.6548 C 213.8493 536.6982 211.983 540.4307 208.8727 543.541 Z" fill-rule="evenodd" fill="#005580" fill-opacity="1" stroke="none" stroke-opacity="1" stroke-width="0.3527778" stroke-linecap="butt" stroke-linejoin="miter"/>
<path id="path_0956dd4a47c6456196eefbe2be800875" d="M 10.35635 527.6055 L -96.32866 339.7403 C -109.0811 317.3457 -141.4288 317.3457 -154.1812 339.7403 L -260.8662 527.6055 C -273.6187 549.689 -257.4448 577.3712 -231.9399 577.3712 L -18.88095 577.3712 C 6.934967 577.3712 22.79776 550.0001 10.35635 527.6055 Z M -124.9439 384.5294 C -114.9908 384.5294 -110.0142 393.5494 -110.0142 411.9005 C -110.0142 421.8536 -111.2584 435.5391 -114.0577 453.2681 C -116.857 470.9971 -118.7232 481.8834 -120.5894 485.3047 C -121.8336 487.793 -123.0777 489.0372 -124.9439 489.0372 C -127.1212 489.0372 -128.6763 488.1041 -129.6094 485.9268 C -131.1646 483.1275 -133.3419 473.1744 -136.1412 456.0674 C -138.9405 438.9605 -140.1846 424.0308 -140.4957 412.2115 C -140.4956 393.5494 -135.2081 384.5294 -124.9439 384.5294 Z M -114.0576 529.4717 C -117.168 532.5821 -120.9004 534.1373 -125.2549 534.1373 C -129.6094 534.1373 -133.3418 532.5821 -136.4522 529.4717 C -139.5625 526.3614 -141.1177 522.629 -141.1177 518.2745 C -141.1177 513.92 -139.5625 510.1876 -136.4522 507.0772 C -133.3418 503.9669 -129.6094 502.4117 -125.2549 502.4117 C -121.2115 502.4117 -117.479 503.9669 -114.0576 507.3882 C -110.6363 510.8096 -109.0811 514.5421 -109.0811 518.5855 C -109.0811 522.629 -110.9473 526.3614 -114.0576 529.4717 Z" fill-rule="evenodd" fill="#BD362F" fill-opacity="1" stroke="none" stroke-opacity="1" stroke-width="0.3527778" stroke-linecap="butt" stroke-linejoin="miter"/>
<path id="path_2a613b96d5226b92f9ae140df063e86d" d="M 286.8813 223.4677 L 180.1961 35.60245 C 167.4437 13.20792 135.0961 13.20792 122.3436 35.60245 L 15.65859 223.4677 C 2.906148 245.5512 19.07998 273.2334 44.58487 273.2334 L 257.644 273.2334 C 283.4599 273.2334 299.3227 245.8622 286.8813 223.4677 Z M 151.5809 80.39153 C 161.534 80.39153 166.5106 89.41154 166.5106 107.7626 C 166.5106 117.7157 165.2664 131.4013 162.4671 149.1303 C 159.6678 166.8593 157.8016 177.7455 155.9354 181.1669 C 154.6913 183.6552 153.4471 184.8994 151.5809 184.8994 C 149.4037 184.8994 147.8485 183.9663 146.9154 181.789 C 145.3602 178.9897 143.183 169.0366 140.3837 151.9296 C 137.5844 134.8227 136.3402 119.893 136.0292 108.0737 C 136.0292 89.41154 141.3168 80.39153 151.5809 80.39153 Z M 162.4672 225.3339 C 159.3568 228.4443 155.6244 229.9995 151.2699 229.9995 C 146.9154 229.9995 143.183 228.4443 140.0727 225.3339 C 136.9623 222.2236 135.4071 218.4911 135.4071 214.1366 C 135.4071 209.7821 136.9623 206.0497 140.0727 202.9394 C 143.183 199.829 146.9154 198.2738 151.2699 198.2738 C 155.3134 198.2738 159.0458 199.829 162.4672 203.2504 C 165.8886 206.6718 167.4438 210.4042 167.4438 214.4477 C 167.4438 218.4912 165.5775 222.2236 162.4672 225.3339 Z" fill-rule="evenodd" fill="#DFC71A" fill-opacity="1" stroke="none" stroke-opacity="1" stroke-width="0.3527778" stroke-linecap="butt" stroke-linejoin="miter"/>
</defs>
<g>
<g>
<use xlink:href="#path_419e75db24d8b34bc9f1dc1f52858754"/>
</g>
</g>
<g>
<use xlink:href="#path_e8b5ed9a8c774be8e34dd6724ad43eb4"/>
</g>
<g>
<use xlink:href="#path_49ad5d0f7e9beed9432d43b65ff3b6a0"/>
</g>
<g>
<use xlink:href="#path_48f6d01f94aa655e69b71f07e58a72ac"/>
</g>
<g>
<use xlink:href="#path_2053783b5d3398ca0c20b407d9a8faf7"/>
</g>
<g>
<use xlink:href="#path_0956dd4a47c6456196eefbe2be800875"/>
</g>
<g>
<use xlink:href="#path_2a613b96d5226b92f9ae140df063e86d"/>
</g>
</svg>