<?xml version="1.0" encoding="utf-8"?>
<!DOCTYPE svg PUBLIC "-//W3C//DTD SVG 1.1//EN" "http://www.w3.org/Graphics/SVG/1.1/DTD/svg11.dtd">
<!-- exported from Silhouette Studio® Business Edition V4.4.259ssbe -->
<svg version="1.1" xmlns="http://www.w3.org/2000/svg" xmlns:xlink="http://www.w3.org/1999/xlink" width="35.27778mm" height="44.09722mm" viewBox="0 0 35.27778 44.09722">
<defs>
<path id="path_71ccfd7a992e9513cb5e7fd47840793d" d="M 12.6649 35.26353 C 12.01875 34.30648 11.64171 33.15224 11.64171 31.90871 C 11.64171 30.07427 12.48837 28.31042 13.97003 27.18153 L 13.97003 9.824899 C 13.97003 7.81408 15.59281 6.19131 17.60362 6.19131 L 17.67418 6.19131 C 19.685 6.19131 21.30776 7.81408 21.30776 9.824899 L 21.30776 27.2168 C 22.78942 28.34569 23.63607 30.10955 23.63607 31.90871 C 23.63607 35.22481 20.95499 37.90591 17.6389 37.90591 C 15.56635 37.90591 13.74184 36.85861 12.6649 35.26353 Z M 12.77057 31.94401 C 12.77057 34.6251 14.95779 36.81235 17.63889 36.81235 C 20.31999 36.81235 22.5425 34.58983 22.50722 31.90873 C 22.50722 30.32123 21.7311 28.83958 20.42583 27.92236 L 20.17888 27.74597 L 20.17888 9.789559 C 20.17888 8.413722 19.04999 7.284858 17.67416 7.284858 L 17.60361 7.284858 C 16.22778 7.284858 15.09888 8.413722 15.09888 9.789559 L 15.09888 27.74597 L 14.85193 27.95762 C 13.54665 28.83957 12.77057 30.3565 12.77057 31.94401 Z" fill-rule="evenodd" fill="#000000" fill-opacity="1" stroke="none" stroke-opacity="1" stroke-width="0.3527778" stroke-linecap="butt" stroke-linejoin="miter"/>
<path id="path_345341be5bfd300db14dc6b578d9d0a8" d="M 19.75556 28.98638 L 19.05001 28.49249 L 19.05001 27.61054 L 19.05001 21.43693 L 16.19251 21.43693 L 16.19251 27.61054 L 16.19251 28.49249 L 15.48695 28.98638 C 14.4639 29.69193 13.86418 30.8561 13.86418 32.05554 C 13.86418 34.13693 15.55751 35.83026 17.63889 35.83026 C 19.72028 35.83026 21.41361 34.13693 21.41361 32.05554 C 21.37834 30.82082 20.77861 29.69193 19.75556 28.98638 Z" fill-rule="evenodd" fill="#0099C6" fill-opacity="1" stroke="none" stroke-opacity="1" stroke-width="0.3527778" stroke-linecap="butt" stroke-linejoin="miter"/>
</defs>
<g>
<g>
<g>
<g>
<use xlink:href="#path_71ccfd7a992e9513cb5e7fd47840793d"/>
</g>
</g>
</g>
<g>
<g>
<g>
<use xlink:href="#path_345341be5bfd300db14dc6b578d9d0a8"/>
</g>
</g>
</g>
</g>
</svg>