<?xml version="1.0" encoding="utf-8"?>
<!DOCTYPE svg PUBLIC "-//W3C//DTD SVG 1.1//EN" "http://www.w3.org/Graphics/SVG/1.1/DTD/svg11.dtd">
<!-- exported from Silhouette Studio® Business Edition V4.4.259ssbe -->
<svg version="1.1" xmlns="http://www.w3.org/2000/svg" xmlns:xlink="http://www.w3.org/1999/xlink" width="304.8mm" height="304.8mm" viewBox="0 0 304.8 304.8">
<defs>
<path id="path_a73aaad6c480456620d65671ccb2c8ea" d="M 140.0934 290.7238 C 100.7661 279.7415 52.27975 219.244 50.11098 175.1606 C 49.81794 144.1005 49.6725 119.2497 49.93628 91.62164 C 75.68197 72.08202 119.2225 52.97074 151.663 40.82997 C 190.4532 54.73587 225.2199 71.41845 254.165 91.05812 C 254.9127 117.8099 255.0458 148.8992 254.3767 174.914 C 255.5346 212.65 192.4068 292.5047 151.943 292.4694 C 148.1321 292.4661 144.1617 291.8599 140.0934 290.7238 Z M 140.7262 120.784 C 140.7262 127.1721 145.9153 132.3612 152.3034 132.3612 C 158.6915 132.3612 163.8807 127.1721 163.8807 120.784 C 163.8807 114.3958 158.6915 109.2067 152.3034 109.2067 C 145.9153 109.2067 140.7262 114.3958 140.7262 120.784 Z M 141.003 165.8507 L 141.003 208.8155 C 141.003 217.2095 146.064 224.0279 152.2943 224.0279 L 152.3125 224.0279 C 158.5428 224.0279 163.6038 217.2095 163.6038 208.8155 L 163.6038 165.8508 C 163.6038 157.4568 158.5428 150.6383 152.3125 150.6383 L 152.2943 150.6383 C 146.0639 150.6383 141.003 157.4568 141.003 165.8507 Z" fill-rule="evenodd" fill="#FFE10D" fill-opacity="1" stroke="none" stroke-opacity="1" stroke-width="0.1" stroke-linecap="round" stroke-linejoin="round"/>
</defs>
<g>
<use xlink:href="#path_a73aaad6c480456620d65671ccb2c8ea"/>
</g>
</svg>